<?xml version="1.0" encoding="utf-8" ?>
<svg xmlns="http://www.w3.org/2000/svg" xmlns:xlink="http://www.w3.org/1999/xlink" width="1337" height="576">
	<path fill="white" d="M51.7136 51.0746C53.9567 51.0009 56.2005 50.949 58.4447 50.9187L118.352 50.8777C139.167 50.8805 164.72 48.8122 184.723 54.3379C193.458 56.7506 201.451 61.8379 207.878 68.1647C218.621 78.7413 223.923 92.4958 223.951 107.505C223.974 120.264 220.187 132.558 210.993 141.691C194.657 157.918 170.835 157.385 149.461 157.397L118.553 157.374C118.462 178.078 118.502 198.784 118.671 219.488C118.905 234.326 122.335 252.247 139.707 255.655C142.485 256.199 149.225 256.075 150.953 258.225C150.373 259.666 149.705 260.016 148.175 260.367C141.107 261.99 131.258 260.666 123.905 260.624C117.576 260.587 56.6521 260.27 55.9929 260.698C55.8666 260.78 55.7479 260.873 55.6253 260.961C55.1313 259.915 53.25 260.275 52.1157 259.851C54.2686 256.345 62.2602 255.586 66.1479 254.375C72.6277 252.355 77.2665 248.694 80.4133 242.625C82.6879 238.238 83.6177 233.335 84.0678 228.453C86.0884 206.539 84.7574 183.462 84.7575 161.416C84.7576 137.274 85.894 112.553 84.4276 88.4938C84.0763 82.7297 83.3853 76.9936 81.5829 71.4833C78.5316 62.1547 70.3216 57.4888 61.1691 55.7116C58.35 55.1641 55.0765 55.0447 52.5027 53.7315L51.7136 51.0746ZM118.585 152.203C137.518 152.351 158.445 154.726 173.049 140.258C173.435 139.874 173.817 139.486 174.194 139.094C183.619 128.449 187.311 115.683 186.456 101.551C185.652 88.2682 180.879 75.0976 170.713 66.1357C156.048 53.2076 136.734 55.6303 118.602 55.8668L118.585 152.203Z"/>
	<path fill="white" d="M228.888 217.053C247.008 214.882 258.395 223.557 274.676 228.072C282.346 230.199 281.928 223.576 287.008 220.674L288.224 221.119C289.005 227.489 290.419 276.661 288.412 280.59L287.289 280.876C284.952 279.247 278.273 256.554 276.39 252.523C272.717 244.659 267.794 236.97 261.266 231.168C253.495 224.261 243.937 221.127 233.572 221.756C224.525 222.306 216.161 225.876 210.122 232.75C204.153 239.544 200.728 250.037 201.399 259.05C204.099 295.297 255.716 302.348 280.471 324.019C292.893 334.894 299.871 348.694 300.913 365.187C301.958 381.74 296.669 399.154 285.613 411.688C273.164 425.801 256.685 431.151 238.392 432.346C228.628 432.562 218.891 431.231 209.543 428.402C201.968 426.055 191.02 419.24 183.166 419.581C178.095 419.801 177.614 422.524 174.524 425.641C173.542 426.631 173.142 426.839 171.785 426.877C169.933 424.013 170.909 379.546 171.05 371.962C171.094 369.607 170.975 366.431 172.793 364.683C175.212 364.659 175.689 368.306 176.36 370.326C182.242 388.032 188.681 406.056 203.896 418.026C212.88 425.095 223.783 428.22 235.155 426.841C245.506 425.659 254.951 420.374 261.375 412.169C268.526 402.95 270.579 390.805 269.116 379.416C264.28 341.766 223.576 335.999 198.143 316.359C187.326 308.005 180.313 296.592 178.612 282.956C176.572 266.883 181.05 250.662 191.046 237.914C200.648 225.731 213.579 218.813 228.888 217.053Z"/>
	<path fill="white" d="M318.787 151.202C319.286 159.743 318.202 168.319 318.699 176.819C321.234 176.968 323.667 175.549 325.548 173.858C337.488 163.121 354.275 101.129 360.294 97.5654C361.708 97.7947 362.271 97.8753 363.174 99.0704C365.018 101.51 365.898 105.395 367.201 108.232C372.603 119.984 390.782 168.42 397.654 174.201C400.815 176.861 406.225 177.411 410.193 178.434C394.638 179.08 378.451 179.341 362.913 178.418C367.423 177.515 374.056 176.913 376.835 172.783C378.105 170.895 377.909 168.4 377.458 166.28C376.486 161.711 371.952 149.615 369.121 146.165C360.479 146.349 351.791 146.145 343.144 146.127C339.38 151.432 334.756 163.957 335.88 170.406C336.232 172.43 337.041 173.993 338.755 175.179C341.393 177.006 344.967 177.574 347.966 178.627L278.886 178.757C266.803 178.753 253.879 179.616 241.887 178.195C247.094 177.25 252.651 176.873 256.014 172.213C259.787 166.988 258.525 114.567 256.984 106.808C256.49 104.32 255.604 102.833 253.481 101.419C250.227 99.2519 245.551 98.7718 241.756 98.0501C257.206 97.6072 272.684 97.3028 288.128 98.1227C283.171 99.0239 277.031 99.4178 273.843 103.889C269.843 109.499 271.042 156.106 272.647 164.304C273.443 168.368 274.379 171.084 277.904 173.496C283.731 177.482 292.529 177.437 299.242 176.061C304.749 174.933 309.356 172.29 312.489 167.526C315.665 162.699 317.147 156.671 318.787 151.202ZM368.08 143.689C366.856 136.469 358.856 120.58 355.672 113.072C351.983 123.002 346.331 133.418 344.087 143.73C352.085 143.67 360.083 143.657 368.08 143.689Z"/>
	<path fill="white" d="M344.087 143.73C352.085 143.67 360.083 143.657 368.08 143.689L369.121 146.165C360.479 146.349 351.791 146.145 343.144 146.127L344.087 143.73Z"/>
	<path fill="white" d="M554.541 276.485L600.595 276.41C611.311 276.391 622.157 276.046 632.845 276.824L632.494 277.024C628.448 279.284 623.813 278.646 622.286 284.042C620.396 290.72 620.233 338.203 623.094 343.187C625.477 347.342 630.697 345.734 633.137 348.624C620.288 348.716 607.438 348.731 594.588 348.667C598.737 347.581 604.893 346.865 607.269 342.87C610.446 337.529 609.825 290.749 607.858 283.757C607.286 281.724 606.105 280.366 604.257 279.368C601.992 278.144 599.182 277.941 596.662 277.626C598.111 283.228 599.298 293.038 596.278 298.185L596.044 298.58C596.871 294.894 595.863 290.375 593.882 287.164C591.128 282.703 585.982 280.347 581.03 279.264C576.114 278.188 571.06 278.215 566.053 278.191L565.994 315.709C565.992 323.186 565.433 331.19 566.627 338.575C566.98 340.756 567.528 342.934 569.143 344.534C571.65 347.015 575.934 346.406 578.153 348.589C565.147 348.771 552.139 348.769 539.133 348.582C543.358 347.62 549.56 347.043 552.071 343.074C555.835 337.126 554.151 288.365 554.123 278.177L554.541 276.485Z"/>
	<path fill="white" d="M679.669 95.673C689.257 95.1792 697.521 98.1341 706.097 102.032C708.357 100.753 709.769 98.9055 710.574 96.4617C710.9 97.3038 711.207 98.1812 711.358 99.0738C712.401 105.212 714.001 120.884 710.497 125.733C710.925 120.487 707.067 113.652 704.198 109.413C700.297 103.649 694.944 98.869 687.878 97.6003C681.734 96.4973 674.981 98.2874 669.922 101.88C660.746 108.395 655.419 120.077 653.567 130.9C651.444 143.309 653.383 156.797 660.809 167.203C664.888 172.919 670.689 177.317 677.767 178.413C683.415 179.309 689.184 177.849 693.726 174.373C697.018 171.863 699.797 168.278 700.303 164.067C700.607 161.536 700.532 158.047 698.813 156.011C698.738 155.922 698.656 155.839 698.578 155.753C698.7 155.027 698.642 154.397 698.3 153.738C696.232 149.746 687.417 149.626 683.398 148.364C695.776 148.24 713.838 146.811 725.596 148.666C723.606 150.067 720.886 150.241 718.607 150.946C709.855 153.652 715.774 167.934 713.269 172.593C713.023 172.578 712.778 172.565 712.532 172.554C712.188 172.542 711.842 172.55 711.499 172.522C708.281 172.263 694.381 179.418 687.386 180.317C675.238 181.878 661.643 179.852 651.793 172.141C643.775 165.864 639.394 156.532 638.21 146.539C636.758 134.285 639.609 121.149 647.344 111.37C655.749 100.742 666.628 97.1608 679.669 95.673Z"/>
	<path fill="white" d="M539.231 98.243C546.901 96.826 555.929 97.6493 563.728 97.6984C569.16 103.478 611.701 155.383 612.205 158.925C612.648 158.259 613.018 157.543 613.201 156.759C614.565 150.926 613.808 118.82 613.167 112.336C612.906 109.704 612.53 105.919 611.055 103.721C608.18 99.4357 601.341 98.9001 596.679 98.0126C607.511 97.613 618.354 97.5882 629.188 97.9384C626.936 100.92 620.71 99.3155 617.8 104.685C611.769 115.814 619.957 172.438 614.258 181.071C613.609 178.444 611.676 176.834 609.582 175.314C609.315 172.555 561.986 116.292 555.648 108.605C555.619 119.807 553.632 165.911 557.839 172.272C560.795 176.74 566.739 177.326 571.524 178.408C560.15 179.009 548.434 179.111 537.075 178.309C539.849 177.638 542.93 177.288 545.609 176.338C547.804 175.56 550.671 173.354 551.639 171.181C554.161 165.513 554.214 110.54 551.656 105.117C549.33 100.187 543.769 99.7891 539.231 98.243Z"/>
	<path fill="white" d="M683.694 274.42C703.272 277.945 717.031 295.686 715.577 315.532C714.124 335.379 697.927 350.925 678.045 351.558C658.162 352.19 641.011 337.706 638.299 317.992C635.587 298.278 648.19 279.698 667.505 274.935L667.685 277.505C666.354 278.727 664.561 279.636 663.147 280.832C658.355 284.884 654.916 290.577 652.845 296.453C648.857 307.776 648.873 321.736 654.19 332.628C657.422 339.248 662.854 345.393 670.011 347.764C675.608 349.617 681.676 349.261 686.914 346.507C694.153 342.703 699.24 334.797 701.641 327.166C705.309 315.506 703.892 300.907 698.184 290.108C694.626 283.377 689.738 279.057 682.394 276.82L683.694 274.42Z"/>
	<path fill="white" d="M342.293 274.399C361.885 277.863 375.7 295.565 374.305 315.419C372.911 335.273 356.756 350.868 336.872 351.556C316.988 352.245 299.794 337.803 297.031 318.094C294.268 298.384 306.827 279.768 326.133 274.958L327.034 277.595C326.958 277.63 326.881 277.664 326.805 277.701C319.243 281.412 314.437 288.011 311.732 295.861C307.757 307.396 307.489 321.515 312.92 332.627C316.158 339.251 321.477 345.305 328.641 347.69C334.258 349.596 340.407 349.154 345.694 346.463C352.913 342.719 357.8 335.055 360.189 327.475C363.968 315.482 362.855 301.57 357.001 290.397C353.627 283.958 349.006 279.264 341.944 277.055L342.293 274.399Z"/>
	<path fill="white" d="M447.855 97.6182C461.971 97.9807 476.121 97.7223 490.243 97.6651C490.733 106.046 491.021 114.437 491.107 122.832C489.106 116.844 487.742 110.72 483.14 106.064C476.247 99.0899 464.334 99.7825 455.261 99.6286C455.442 111.272 453.254 165.649 457.414 172.357C460.176 176.811 466.964 177.42 471.662 178.482C464.746 178.874 457.713 178.693 450.781 178.738C442.428 178.809 434.075 178.719 425.725 178.467C429.999 177.209 434.982 177.062 438.334 173.813C440.151 172.051 440.727 170.187 441.146 167.737C442.604 159.221 441.897 149.962 441.888 141.326L441.909 99.5348C434.409 99.7862 425.017 99.3134 418.282 103.004C410.895 107.051 408.89 115.347 406.621 122.781C406.363 114.452 407.007 106.044 407.415 97.7216C420.878 97.3539 434.374 97.9414 447.855 97.6182Z"/>
	<path fill="white" d="M722.914 276.571C728.988 276.447 735.063 276.407 741.138 276.45C744.508 278.148 784.499 328.053 785.525 331.08C785.774 330.681 785.94 330.398 786.07 329.942C787.484 324.959 786.7 286.036 784.576 282.471C782.033 278.203 775.699 277.595 771.285 276.614C780.837 276.474 790.391 276.244 799.936 276.723C798.578 278.287 794.966 278.691 793.055 279.755C791.177 280.801 789.916 282.722 789.369 284.762C787.045 293.419 788.628 324.06 788.676 334.883C788.695 339.344 789.215 344.516 788.072 348.836L787.293 349.178C785.627 347.848 783.986 346.484 782.374 345.089C782.352 344.983 782.339 344.874 782.307 344.771C781.452 342.057 737.625 288.614 734 286.28C736.77 293.444 734.203 324.947 734.863 335.412C735.711 348.86 741.534 343.796 746.506 348.461C746.579 348.528 746.644 348.602 746.714 348.673C737.201 348.711 727.688 348.689 718.176 348.606C722.104 347.301 726.774 347.297 729.815 344.102C734.261 339.432 732.719 302.967 732.586 294.44C732.527 290.666 731.662 280.738 727.824 279.079C725.821 278.214 722.799 278.596 721.165 277.016L722.914 276.571Z"/>
	<path fill="white" d="M511.121 97.6261C519.678 97.6241 528.234 97.7261 536.788 97.9321C533.534 99.0445 529.414 99.4118 526.474 101.138C524.655 102.207 523.336 103.577 522.771 105.642C520.625 113.483 520.034 166.842 523.495 172.56C526.031 176.748 533.175 177.457 537.592 178.488C531.689 178.785 525.729 178.692 519.818 178.758C510.446 178.85 501.074 178.746 491.708 178.444C495.184 177.525 499.484 177.094 502.537 175.249C504.644 173.975 506.149 172.323 506.711 169.9C508.574 161.86 509.318 109.425 505.844 104.171C502.781 99.5385 496.182 99.0232 491.188 97.9932L511.121 97.6261Z"/>
	<path fill="white" d="M205.98 446.322L207.601 446.371C208.29 452.373 187.446 492.17 189.214 498.067C189.555 499.204 191.944 500.043 193.027 500.605C191.08 501.694 182.468 503.171 180.34 502.632C180.566 501.547 180.719 500.608 180.68 499.497C173.02 499.865 171.519 503.077 162.613 501.279C162.19 501.012 161.77 500.743 161.363 500.453C159.216 498.928 157.65 497.02 157.256 494.358C156.428 488.765 158.934 482.958 162.235 478.545C166.466 472.886 172.923 468.295 180.037 467.36C184.615 466.757 188.03 467.849 191.656 470.625C191.779 470.544 191.907 470.469 192.027 470.383C193.387 469.406 198.534 453.918 199.025 451.478C198.064 449.547 197.244 449.409 195.375 448.416L195.241 447.757C198.275 446.638 202.714 446.674 205.98 446.322ZM172.806 500.978C180.124 498.08 183.633 491.942 186.641 485.023C188.25 481.324 190.819 475.468 189.214 471.476C188.677 470.141 187.676 469.202 186.338 468.69C184.977 468.17 183.319 468.251 181.88 468.258C174.291 471.693 168.742 477.956 165.769 485.74C164.498 489.068 163.146 493.578 164.778 496.97C165.535 498.542 167.081 499.957 168.754 500.49C170.033 500.897 171.475 500.993 172.806 500.978Z"/>
	<path fill="white" d="M941.56 276.639C954.131 276.455 966.919 275.9 979.466 276.729C979.388 276.799 979.314 276.873 979.234 276.94C973.812 281.488 969.774 276.679 968.468 287.92C967.457 296.627 966.651 335.943 971.482 341.972C973.965 345.072 977.966 346.319 981.752 346.923L981.292 347.785C971.511 348.526 952.371 346.145 944.256 348.635L942.684 348.625C937.955 345.499 928.478 350.428 923.849 346.922C930.2 346.305 935.418 344.558 939.669 339.469C942.262 336.365 944.545 330.603 944.171 326.449C944.134 326.049 944.066 325.667 944.007 325.269C943.983 325.101 943.964 324.932 943.943 324.764L944.088 325.037C947.917 332.32 943.674 339.546 945.737 346.722C947.578 347.076 950.229 346.47 951.788 345.443C954.163 343.879 955.182 340.947 955.63 338.274C957.002 330.083 956.768 297.197 955.797 288.745C955.524 286.371 955.096 283.547 953.626 281.596C950.818 277.87 945.656 277.877 941.56 276.639Z"/>
	<path fill="white" d="M803.197 324.459C808.063 329.034 808.619 336.481 812.774 341.695C815.76 345.443 819.804 348.138 824.647 348.621C828.399 348.995 832.177 348.05 835.113 345.632C838.218 343.074 840.736 338.777 841.081 334.735C842.388 319.454 818.575 315.35 810.727 305.685C807.932 302.244 806.145 297.801 806.674 293.32C807.296 288.047 811.405 281.899 815.568 278.611C819.227 275.753 823.864 274.451 828.475 274.985L828.93 276.236C828.523 276.252 828.123 276.292 827.719 276.348C823.83 276.886 820.491 278.103 818.08 281.383C816.099 284.079 815.614 287.567 816.137 290.813C817.992 302.322 835.395 305.393 843.638 311.594C848.162 314.997 851.301 319.411 852.042 325.119C852.823 331.147 851.326 337.26 847.532 342.054C840.063 351.49 828.479 351.645 817.928 348.534C815.562 347.836 811.884 346.18 809.486 346.152C807.579 346.13 806.631 347.912 804.802 348.115C802.232 342.503 806.404 331.84 803.306 324.703L803.197 324.459Z"/>
	<path fill="white" d="M376.364 276.545C389.89 276.399 403.428 276.228 416.946 276.797C413.857 277.791 410.357 277.92 407.604 279.794C405.38 281.308 404.606 282.981 404.111 285.575C402.595 293.523 402.02 335.638 406.073 341.282C409.039 345.414 413.655 346.317 418.33 347.095C414.343 349.451 386.212 347.677 379.259 348.025C381.599 347.467 384.323 346.906 386.424 345.711C388.313 344.636 389.585 343.162 390.155 341.058C391.885 334.662 392.488 287.397 389.585 282.564C386.908 278.107 380.948 277.734 376.364 276.545Z"/>
	<path fill="white" d="M875.997 276.859C889.018 276.079 902.481 275.953 915.505 276.767C913.401 278.141 910.692 278.278 908.504 279.467C906.606 280.499 905.094 282.6 904.52 284.657C902.42 292.19 902.732 335.157 906.16 340.842C908.58 344.857 912.871 345.952 917.126 346.916L916.619 347.762C908.196 348.137 891.276 346.368 884.194 348.614C883.031 348.739 881.889 348.598 880.728 348.499L880.201 347.77C882.717 347.245 885.083 346.548 887.509 345.698C889.478 343.986 890.249 341.124 890.786 338.657C892.529 330.64 893.177 287.006 889.285 281.306C886.88 277.785 879.812 277.467 875.997 276.859Z"/>
	<path fill="white" d="M1066.82 345.577L1066.51 346.313C1063.84 348.194 1060.87 349.063 1057.7 349.642C1047.02 351.589 1035.24 350.393 1026.14 344.079C1018.56 338.823 1013.82 330.598 1012.26 321.579C1010.41 310.851 1012.48 298.67 1018.83 289.701C1024.65 281.466 1033.36 277.196 1043.11 275.52L1046.03 275.98L1046.43 276.756C1037.98 280.005 1032.37 285.592 1028.72 293.86C1023.97 304.622 1023.53 318.715 1027.8 329.706C1030.38 336.369 1034.99 341.826 1041.61 344.76C1048 347.586 1057.09 347.932 1063.57 345.285C1064.38 344.951 1065.23 344.625 1065.96 344.119L1066.82 345.577Z"/>
	<path fill="white" d="M440.588 276.842C454.068 276.229 467.569 276.218 481.049 276.811C477.889 277.69 474.086 277.825 471.364 279.795C468.921 281.563 468.119 283.45 467.618 286.35C466.084 295.225 465.608 335.141 470.146 341.399C474.339 347.182 479.678 348.118 486.267 349.133C484.121 350.334 480.923 349.865 478.511 350.129C476.394 350.193 474.112 349.764 472.04 349.343C454.537 345.793 454.728 332.761 454.898 318.282L455.163 296.895C455.215 292.078 455.522 286.128 452.69 281.976C449.985 278.012 444.924 277.713 440.588 276.842Z"/>
	<path fill="white" d="M447.619 474.455C443.747 477.366 439.71 490.033 438.908 494.974C438.639 496.635 438.788 497.315 439.477 498.839C440.585 499.459 443.549 500.319 444.138 501.214C440.4 502.224 422.076 502.08 418.04 501.243L418.346 499.956L419.304 500.84C423.136 499.792 426.813 498.129 428.881 494.538C432.323 488.562 445.149 456.731 444.772 451.925C443.515 449.456 442.076 449.141 439.572 448.162L439.795 447.565C448.757 447.424 472.526 445.048 478.989 451.568C480.355 452.921 481.104 454.778 481.057 456.7C480.907 461.197 477.375 466.769 474.12 469.669C469.975 473.362 464.183 474.862 458.718 474.864L456.967 473.168C462.446 471.004 467.206 467.373 469.607 461.814C470.699 459.285 471.298 456.248 470.156 453.625C469.246 451.535 467.364 450.023 465.263 449.25C462.689 448.302 459.156 448.698 456.431 448.745C453.319 457.062 450.069 465.327 446.682 473.536L447.619 474.455Z"/>
	<path fill="white" d="M687.328 471.666C690.565 465.035 681.54 453.347 699.755 447.128C702.634 446.145 705.893 445.944 708.646 447.414C710.369 448.335 711.663 449.752 712.219 451.647C712.876 453.886 712.348 456.403 711.216 458.397C708.158 463.784 701.331 466.886 695.695 468.876C700.262 473.277 700.017 481.364 703.52 486.529C703.547 486.688 703.572 486.847 703.601 487.005C704.307 490.894 707.361 496.528 710.63 498.774C711.62 499.453 712.705 499.665 713.872 499.823C715.731 499.218 717.556 498.575 719.375 497.861C718.779 499.644 715.888 501.323 714.262 502.141C712.056 503.25 709.465 503.939 707.057 503.054C701.792 501.118 699.998 495.966 696.646 494.336L695.875 492.334C695.96 492.019 696.048 491.66 696.049 491.334C696.069 487.929 691.019 475.309 688.563 472.739L687.328 471.666ZM698.728 465.738C702.305 464.219 705.384 460.077 706.813 456.541C707.508 454.822 708.056 452.637 707.307 450.85C706.807 449.658 706.033 448.677 704.774 448.209C703.056 447.571 700.792 448.068 699.035 448.325C695.869 451.04 694.128 453.095 693.836 457.361C693.589 460.957 694.423 464.024 696.436 466.995L697.571 467.119L698.728 465.738Z"/>
	<path fill="white" d="M626.22 513.275L626.48 513.144C629.51 511.59 632.664 508.715 633.8 505.404C633.997 504.829 633.751 504.046 633.664 503.445C629.613 498.766 612.097 503.612 612.85 495.498C612.982 494.072 613.502 493.145 614.629 492.249C616.559 490.716 621.608 489.761 622.63 487.812C620.849 485.988 619.328 484.306 619.349 481.614C619.376 478.114 621.91 474.96 624.338 472.686C627.611 469.619 630.844 467.703 635.465 467.851C638.465 467.948 641.613 469.291 644.55 469.148C648.231 468.97 650.499 466.459 654.53 467.976C655.351 469.184 655.63 470.129 655.189 471.61C655.06 472.043 654.861 472.273 654.579 472.615C650.925 472.715 648.784 468.104 645.382 470.748C643.169 477.34 646.859 481.828 638.704 485.971C633.847 488.439 619.83 489.412 617.664 493.047L617.95 493.902C623.61 496.649 637.686 493.078 639.938 500.161C640.542 502.059 639.798 504.166 638.855 505.82C636.723 509.555 632.931 513.22 628.68 514.324C627.981 514.505 627.271 514.599 626.552 514.651L626.22 513.275ZM629.007 488.169C632.732 487.491 634.432 485.918 636.547 482.807C638.47 479.98 640.882 475.317 640.185 471.746C639.862 470.093 639.132 469.476 637.832 468.512C636.533 468.369 635.435 468.358 634.143 468.564C629.541 472.089 625.586 477.561 624.848 483.47C624.624 485.263 624.874 485.937 625.967 487.335C626.92 487.73 627.962 488.313 629.007 488.169Z"/>
	<path fill="white" d="M1230.91 500.841C1229.47 499.165 1228.66 497.905 1228.09 495.761C1228.33 494.317 1228.35 493.389 1229.63 492.43C1231.99 490.658 1235.82 490.96 1237.84 488.53L1237.85 488.535C1236.07 486.517 1234.38 484.395 1234.56 481.54C1234.77 478.155 1237.29 474.659 1239.78 472.526C1242.83 469.919 1247.1 467.751 1251.21 468.129C1253.84 468.371 1256.58 469.303 1259.2 469.302C1262.88 469.299 1266.75 466.552 1270.47 468.54L1270.95 469.759C1270.36 471.139 1269.93 472.081 1268.7 473.029C1265.04 472.982 1265.11 468.547 1260.78 470.763C1260.22 476.347 1259.75 481.689 1255.15 485.528C1249.04 490.631 1233.74 488.475 1232.85 494.095C1237.28 498.37 1255.05 491.684 1255.23 502.109C1255.29 505.297 1253.06 508.106 1250.92 510.237C1248.68 512.471 1245.72 514.475 1242.47 514.677L1241.83 513.284C1244.06 512.256 1246.64 510.131 1247.73 507.899C1248.58 506.144 1248.43 505.082 1247.79 503.313C1244.1 499.96 1235.69 500.961 1230.91 500.841ZM1245.73 487.987C1249.77 486.57 1251.96 483.273 1253.77 479.565C1255.2 476.648 1255.89 474.016 1254.98 470.851C1254.08 469.788 1253.45 468.753 1251.88 468.737C1250.67 468.725 1249.35 469.021 1248.16 469.224C1244.32 473.616 1239.97 477.876 1240.31 484.161C1240.42 486.148 1240.97 487.036 1242.37 488.374C1243.7 488.543 1244.51 488.597 1245.73 487.987Z"/>
	<path fill="white" d="M1146.84 446.367L1148.58 446.835C1148.69 451.208 1140.77 469.714 1137.98 473.079C1142.08 471.499 1144.97 469.155 1149.52 468.198C1152.57 467.555 1157.18 466.685 1159.88 468.667C1166.83 473.778 1152.86 491.805 1153.76 498.8C1154.77 499.876 1155.95 500.622 1157.17 501.432L1156.71 501.903C1149.98 501.837 1143.25 501.854 1136.51 501.954C1138.7 501.459 1141.3 501.055 1143.31 500.059C1147.77 497.848 1151.24 487.083 1152.84 482.655C1154.23 478.828 1156.2 475.293 1154.39 471.423L1154.06 470.215C1153.44 469.769 1152.77 469.332 1152.02 469.162C1149.24 468.537 1145.53 469.787 1143.21 471.274C1136.54 475.54 1131.17 490.262 1129.59 497.698C1130.43 499.751 1131.34 500.036 1133.16 501.241L1132.96 501.899C1127.27 501.671 1121.63 502.096 1115.95 501.917L1115.66 501.216C1117.46 500.674 1119.44 500.082 1120.89 498.824C1124.51 495.69 1139.6 456.047 1140.08 451.033C1139.27 449.16 1138.66 449.188 1136.87 448.328C1139 446.746 1144.11 446.7 1146.84 446.367Z"/>
	<path fill="white" d="M97.8135 447.583C107.538 447.061 117.364 447.362 127.102 447.402C125.183 447.839 123.244 448.271 121.364 448.854C117.037 450.198 115.488 452.134 113.486 456.051C110.761 461.381 97.0912 493.619 98.43 497.196C99.3526 499.66 102.081 500.367 104.327 501.243C96.3176 501.978 86.1293 502.308 78.1771 501.292L78.5424 500.613C80.36 500.09 82.1837 499.588 84.013 499.108C90.967 493.043 99.8845 467.452 103.039 457.972C103.767 455.784 104.976 452.838 103.876 450.645C102.41 448.771 99.9892 448.273 97.8135 447.583Z"/>
	<path fill="white" d="M367.138 467.186C368.928 467.357 370.746 467.526 372.497 467.945C374.36 468.392 376.248 469.12 377.205 470.911C379.701 475.58 372.914 487.061 371.211 491.834C370.288 494.419 369.214 497.152 370.437 499.744C372.786 500.012 374.249 498.296 376.263 498.668C374.975 500.277 373.336 501.927 371.254 502.407C367.891 503.184 364.95 500.68 362.327 498.943C358.556 499.046 355.955 501.291 352.473 502.243C349.491 503.057 346.001 501.504 343.484 500.059C343.401 499.657 343.381 499.61 343.335 499.238C341.341 482.968 362.643 488.736 368.87 480.184C370.435 478.034 372.249 474.09 371.698 471.352C371.348 469.613 370.508 469.218 369.162 468.364C363.873 467.547 362.147 472.256 357.816 474.02C356.403 474.595 355.852 474.686 354.453 474.112C354.347 472.47 354.635 471.99 355.683 470.722C358.283 467.575 363.392 467.531 367.138 467.186ZM351.513 500.896C355.998 500.731 358.654 499.54 361.711 496.22C363.994 493.74 368.207 486.716 367.959 483.153C367.949 483.001 367.928 482.851 367.912 482.7C362.337 485.267 353.188 488.353 350.938 494.546C350.203 496.567 350.302 498.675 351.334 500.585C351.391 500.691 351.454 500.793 351.513 500.896Z"/>
	<path fill="white" d="M899.479 467.918C902.821 467.417 909.15 466.977 912.213 468.505C922.028 473.401 905.055 491.584 907.724 499.36C909.351 500.218 911.461 499.55 913.19 499.25C912.408 500.444 911.531 501.305 910.298 502.025C905.544 504.8 903.64 500.01 900 499.087C896.797 498.275 892.572 504.21 881.875 501.225C881.332 500.048 880.791 498.869 880.769 497.551C880.543 484.299 898.474 488.225 904.962 481.765C906.064 480.991 906.829 480.013 907.456 478.827C908.814 476.256 910.099 471.715 909.28 468.849C905.127 465.551 896.607 475.101 891.868 475.513L891.029 474.622L891.225 472.632C893.007 469.434 896.222 468.887 899.479 467.918ZM888.738 500.591C891.824 501.054 893.964 500.927 896.537 499.018C900.039 496.419 904.582 489.887 905.064 485.478C905.114 485.019 905.121 484.574 905.097 484.114C904.517 483.919 903.937 483.679 903.331 483.59C903.254 483.656 903.178 483.724 903.099 483.788C898.072 487.88 889.054 488.563 888.053 496.439C887.852 498.021 888.121 499.145 888.738 500.591Z"/>
	<path fill="white" d="M817.601 447.588C823.47 447.581 829.35 447.499 835.212 447.837C835.068 447.959 834.927 448.085 834.779 448.202C832.497 450.011 829.181 449.326 826.769 451.809C823.011 455.677 809.701 488.559 808.636 494.68C808.396 496.061 808.597 497.105 809.131 498.391C810.436 499.904 811.755 500.319 813.597 500.928L813.273 501.512C804.394 502.782 794.621 501.377 785.599 501.709C791.985 500.292 795.627 499.093 799.337 493.257C804.956 484.417 809.345 467.628 814.099 457.027L813.792 456.347L812.112 456.715L811.219 455.745C813.082 453.945 817.294 450.191 817.601 447.588Z"/>
	<path fill="white" d="M954.01 501.81C956.612 500.748 959.462 500.618 961.969 499.188C967.982 495.758 979.949 463.286 981.865 455.637C982.299 453.905 982.639 452.443 981.668 450.818C980.327 449.48 978.92 449.199 977.138 448.757L976.975 448.167C981.991 446.931 989.13 447.4 994.272 447.927L994.35 449.028C991.667 454.191 988.205 468.469 984.203 471.442L983.608 473.475C984.939 480.106 974.391 490.57 976.65 498.266C977.731 499.998 979.609 500.435 981.431 501.094L981.271 501.833C972.185 501.693 963.097 501.686 954.01 501.81Z"/>
	<path fill="white" d="M762.101 447.807C768.501 447.647 774.901 447.545 781.302 447.5C784.72 456.226 782.02 478.015 783.529 488.627L784.453 488.499L784.958 489.2C784.919 489.348 784.884 489.496 784.841 489.642C783.683 493.534 776.551 500.671 773.044 502.664C773.237 502.328 773.412 502.01 773.562 501.653C775.261 497.617 772.416 458.545 770.786 454.619C770.889 455.145 770.971 455.673 770.957 456.21C770.906 458.226 769.67 459.706 768.328 461.062L767.783 459.814C769.06 457.106 770.468 454.54 769.518 451.523C767.532 448.922 765.159 448.579 762.101 447.807Z"/>
	<path fill="white" d="M131.362 467.296C132.467 468.969 131.065 469.636 131.593 471.378C134.966 469.571 138.911 467.683 142.761 467.314C145.467 467.054 149.886 467.291 152.024 469.225C157.006 473.732 146.347 490.005 145.501 495.751C145.027 498.969 148.214 499.563 148.274 501.36C145.751 501.423 133.749 502.182 131.778 501.2C131.43 501.026 131.515 501.038 131.436 500.669L132.219 500.424C132.559 500.314 132.894 500.191 133.238 500.094C135.04 499.591 135.872 498.99 137.037 497.541C141.498 491.99 147.573 477.437 146.737 470.416C145.345 469.768 144.012 469.245 142.477 469.051C139.281 468.631 136.053 469.542 133.547 471.57C129.284 475 122.244 490.415 121.816 495.909C121.679 497.676 122.54 498.797 123.641 500.069C124.11 500.611 124.019 500.516 124.076 501.164C119.328 501.697 111.846 502.303 107.247 501.148L107.765 500.487C108.797 500.307 110.028 500.154 110.972 499.686C115.431 497.476 121.658 480.897 122.921 475.889C123.539 473.441 122.821 471.855 121.611 469.74L121.909 468.823C124.788 467.504 128.242 467.54 131.362 467.296Z"/>
	<path fill="white" d="M207.964 467.909C211.978 467.589 216.114 467.738 220.144 467.698C218.108 473.211 208.533 493.158 210.198 497.777C210.519 498.667 211.382 499.335 212.239 499.705C214.555 500.706 218.086 500.298 220.318 499.268C228.177 495.641 231.247 483.185 234.042 475.764C236.786 468.477 233.002 471.579 231.556 468.376C232.32 468.047 233.111 467.746 233.934 467.6C236.54 467.137 240.928 467.059 243.129 468.576L242.565 470.369C240.029 476.76 233.588 489.897 232.951 496.344C232.693 498.956 234.776 498.955 236.156 500.688C235.76 500.809 235.36 500.915 234.957 501.006C233.115 501.431 225.861 502.408 224.488 501.513C224.79 500.312 225.058 499.26 225.022 498.007C219.831 500.084 214.148 503.3 208.351 501.997C206.548 501.591 204.631 500.503 203.736 498.82C200.991 493.654 209.79 480.032 211.091 474.209C212.247 469.033 209.912 470.973 207.964 467.909Z"/>
	<path fill="white" d="M514.41 482.313C516.063 479.562 519.083 474.818 518.434 471.537C518.222 470.464 517.496 469.25 516.536 468.646C510.81 465.041 508.071 474.493 503.267 475.292C501.917 475.517 501.546 475.486 500.441 474.704L500.407 473.319C501.276 471.324 502.496 469.919 504.419 468.846C507.822 466.946 516.326 467.039 520.001 468.19C521.692 468.72 523.193 469.633 524.007 471.261C526.159 475.563 519.755 487.25 517.933 491.901C516.898 494.693 515.908 497.154 517.199 499.98C519.412 500.151 520.617 499.245 522.561 498.293L522.832 498.813C520.794 500.872 518.471 502.091 515.529 502.22C513 502.33 511.617 501.426 509.806 499.755C507.977 498.066 497.058 503.539 492.924 501.932C491.754 501.477 490.766 500.344 490.3 499.179C489.594 497.419 489.5 495.48 490.285 493.73C493.6 486.343 507.566 484.837 514.41 482.313C512.31 484.305 508.578 485.578 505.967 486.933C502.511 488.727 498.56 491.014 497.395 494.993C496.715 497.313 497.103 498.899 498.27 500.95C499.65 500.91 501.128 500.874 502.451 500.449C506.365 499.191 510.225 494.767 512.007 491.125C513.022 489.049 515.195 484.537 514.41 482.313Z"/>
	<path fill="white" d="M406.72 446.308C407.544 446.106 408.31 446.282 409.133 446.408C409.324 451.004 392.614 487.479 390.41 495.685C389.981 497.282 390.29 498.029 391.05 499.428C392.052 499.892 392.977 500.2 393.579 501.174C389.373 502.567 382.357 501.579 377.826 501.545L376.153 501.246C379.03 499.935 381.847 498.136 383.669 495.481C386.86 490.831 395.514 466.583 398.24 459.58C399.701 455.829 400.562 451.948 398.843 448.135L398.625 447.663L398.898 447.079L406.72 446.308Z"/>
	<path fill="white" d="M497.362 446.324C498.027 446.221 498.761 446.272 499.436 446.263C500.298 448.436 482.86 488.375 480.768 495.365C480.264 497.05 480.447 497.919 481.201 499.449C482.257 499.907 483.084 500.184 483.75 501.156C480.275 502.647 472.533 501.585 468.57 501.557C467.898 501.573 467.351 501.411 466.704 501.251C469.045 500.005 471.531 498.679 473.234 496.585C475.945 493.25 491.078 453.757 490.766 450.273C489.883 449.275 488.987 448.553 487.914 447.78L489.373 447.846L488.625 447.326C491.417 446.752 494.515 446.632 497.362 446.324Z"/>
	<path fill="white" d="M944.196 446.367C945.151 446.293 945.709 446.337 946.625 446.617C946.804 454.227 926.836 492.038 927.773 498.55C927.88 499.292 930.473 500.863 931.22 501.379C927.414 502.884 919.393 501.733 915.107 501.687C914.721 501.739 914.235 501.572 913.851 501.494C916.759 500.096 919.513 498.319 921.242 495.511C923.942 491.126 938.983 453.967 938.056 450.512C937.772 449.453 936.327 448.985 935.407 448.457L935.203 447.679C938.16 447.013 941.189 446.724 944.196 446.367Z"/>
	<path fill="white" d="M844.647 500.732C842.827 502.048 839.689 502.332 837.498 502.652C833.959 503.168 831.087 502.771 828.199 500.541C825.73 498.636 824.255 495.84 823.908 492.753C823.334 487.644 825.716 482.273 828.825 478.346C833.121 472.921 840.256 468.338 847.207 467.563C850.624 467.183 854.293 467.795 856.997 470.049C858.6 471.385 859.832 473.26 859.99 475.383C860.124 477.169 859.209 478.286 858.109 479.533C856.248 480.818 853.641 480.213 851.505 479.999L852.145 478.687C853.255 477.144 854.465 474.175 854.109 472.271C853.904 471.174 853.309 470.182 852.344 469.57C850.721 468.54 848.514 468.56 846.705 468.99C841.135 470.313 838.22 474.012 835.366 478.644L835.214 479.977C832.935 482.363 831.285 487.508 831.398 490.767C831.485 493.284 832.706 495.863 834.547 497.578C836.509 499.405 838.894 499.94 841.511 499.792C842.424 499.735 843.336 499.654 844.245 499.548L844.647 500.732Z"/>
	<path fill="white" d="M308.078 468C309.958 467.698 311.821 467.565 313.72 467.451L314.126 468.073L313.257 471.863L313.545 472.153C315.046 471.312 316.561 470.496 318.09 469.705C321.264 468.08 325.558 465.965 329.121 467.119C330.184 468.296 330.177 468.75 330.396 470.266C329.57 471.894 329.199 472.189 327.722 473.13C325.117 473.018 324.096 471.653 321.869 470.584C320.477 469.916 319.199 469.949 317.8 470.564C311.73 473.233 307.375 488.359 305.174 494.204C304.946 494.763 304.676 495.377 304.581 495.975C304.22 498.254 305.598 499.15 306.947 500.774L306.596 501.374C301.673 501.522 296.774 501.674 291.85 501.466L292.454 500.773L290.07 501.278C291.549 499.336 294.974 499.708 296.791 497.156C299.877 492.821 307.021 476.793 306.066 471.622C304.971 469.938 304.486 469.723 302.735 468.905L303.264 468.781L303.807 469.28L303.729 468.695L308.078 468Z"/>
	<path fill="white" d="M294.558 457.558L295.386 457.937C295.296 460.985 293.092 465.083 291.941 467.964C294.312 467.938 299.265 467.518 301.082 468.851C297.945 469.736 294.597 469.446 291.369 469.385C288.201 477.237 282.932 487.043 281.8 495.383C281.576 497.036 281.433 498.533 282.497 499.926C286.427 501.842 288.173 498.152 291.383 498.316C291.548 498.324 291.712 498.344 291.877 498.359C290.747 499.51 289.272 500.279 287.791 500.883C284.946 502.044 279.301 503.091 276.393 501.727C268.551 498.047 285.99 475.422 284.058 469.553L281.341 469.418L281.263 468.703C286.894 466.683 290.867 462.015 294.558 457.558Z"/>
	<path fill="white" d="M878.198 469.561C878.004 478.037 867.416 489.58 868.814 497.928C869.615 499.101 869.896 499.737 871.31 500.278C873.984 501.301 877.432 499.044 879.776 497.947C879.075 498.486 878.366 499.014 877.648 499.53C874.058 502.102 869.49 503.265 865.078 502.293C864.301 502.122 863.33 501.629 862.89 500.96C858.671 494.544 870.403 477.856 871.835 470.684C870.841 469.067 869.919 470.444 868.493 469.515C873.223 464.573 879.286 463.657 882.014 456.411L882.209 455.878C883.358 459.762 880.675 464.486 879.421 468.238L878.198 469.561Z"/>
	<path fill="white" d="M550.964 455.184C549.671 459.325 547.516 463.311 546.715 467.578L547.585 468.357L545.511 469.467C543.18 478.581 534.431 490.132 536.285 499.608C536.6 500.036 537.026 500.86 537.514 501.045C539.794 501.908 542.735 500.206 544.777 499.28C540.837 500.998 535.839 503.031 531.452 502.411C529.625 502.153 529.135 501.688 528.086 500.216C527.745 496.521 536.656 474.774 538.84 470.519L539.044 470.129C537.877 470.014 536.73 470.156 535.846 469.359C541.549 464.873 546.362 460.896 550.964 455.184Z"/>
	<path fill="white" d="M1176.63 502.062C1178.72 501.59 1180.97 501.174 1182.96 500.366C1187.52 498.521 1189.37 492.384 1191.13 488.173C1192.57 484.75 1197.23 475.301 1196.13 472.128C1195.68 470.829 1193.95 470.621 1193.38 469.23C1197.09 468.481 1200.72 468.102 1204.49 467.818L1204.93 468.276L1204.08 471.358L1204.54 471.903L1206.64 470.815L1206.82 471.36C1200.6 477.149 1196.02 489.444 1194.19 497.687C1194.98 499.829 1195.97 500.151 1197.81 501.435C1196.21 502.814 1179.77 502.03 1176.63 502.062Z"/>
	<path fill="white" d="M566.649 500.794C568.508 500.002 569.927 499.241 571.132 497.569C574.899 492.347 581.487 477.999 580.511 471.537C579.883 470.516 579.409 469.911 578.35 469.316C578.262 469.267 578.173 469.221 578.084 469.173C579.195 468.418 580.407 468.301 581.703 468.1C583.91 467.757 587.787 467.13 589.615 468.469C589.295 469.507 588.887 470.411 589.229 471.487L592.042 470.204C591.423 471.869 589.985 472.744 588.903 474.102C586.348 477.308 578.518 494.414 579.179 497.895C579.49 499.531 581.316 500.338 582.654 501.205C577.546 502.451 570.284 501.735 564.98 501.462L564.964 500.974L566.649 500.794Z"/>
	<path fill="white" d="M1018.71 501.878C1019.74 501.638 1020.76 501.381 1021.78 501.106C1025.95 500.011 1027.82 497.414 1029.93 493.778C1032.84 488.756 1038.39 476.672 1036.81 470.761C1035.79 470.364 1035.13 470.078 1034.38 469.269C1036.52 468.669 1038.64 468.419 1040.85 468.155C1042.52 467.954 1044.68 467.213 1046.02 468.267C1045.75 469.457 1045.49 470.561 1045.48 471.789L1047.67 470.863L1048.29 471.149C1044.88 474.304 1043.04 477.762 1041.14 481.922C1039.61 485.292 1035.04 494.204 1035.71 497.972C1036.07 500.042 1038.54 499.962 1039.22 501.795L1018.71 501.878Z"/>
	<path fill="white" d="M1206.64 470.815C1211.14 468.393 1216.85 466.505 1221.93 468.139C1223.47 468.636 1224.81 469.533 1225.52 471.025C1226.92 473.922 1225.59 477.719 1224.54 480.53C1223.09 484.379 1216.94 495.031 1218.49 498.561C1219 499.73 1220.4 500.857 1221.25 501.834L1201.09 502.086C1206.91 500.407 1209.14 499.889 1212.19 494.341C1214.91 489.394 1220.42 478.521 1218.89 472.897C1218.55 471.639 1217.95 470.912 1216.96 470.07C1213.83 468.699 1210.9 469.739 1207.86 470.923C1207.51 471.058 1207.16 471.203 1206.82 471.36L1206.64 470.815Z"/>
	<path fill="white" d="M495.108 276.781C504.098 276.385 513.098 276.301 522.094 276.528C519.169 278.49 513.536 276.005 510.715 277.435C513.249 277.441 516.059 277.12 518.225 278.636C514.434 281.352 513.298 283.496 512.508 288.082C509.901 303.212 518.273 335.402 504.779 345.251C498.027 350.18 486.565 351.129 478.511 350.129C480.923 349.865 484.121 350.334 486.267 349.133C491.843 348.317 497.912 347.449 502.789 344.427C506.202 342.312 507.926 340.208 508.854 336.345C510.615 329.014 511.437 287.414 507.968 282.042C505.409 278.081 499.307 277.617 495.108 276.781Z"/>
	<path fill="white" d="M1047.67 470.863C1051.97 468.517 1057.53 466.529 1062.44 467.875C1064.07 468.322 1065.95 469.224 1066.83 470.739C1068.07 472.86 1067.55 475.456 1066.84 477.655C1064.91 483.631 1058.68 492.497 1059.54 498.662C1060.5 499.839 1061.44 500.559 1062.7 501.365L1062.26 501.929C1056.68 501.645 1051.18 501.769 1045.6 501.966L1045.3 501.314C1051.03 499.133 1052.94 495.764 1055.36 490.363C1057.33 485.957 1061.93 476.848 1059.98 471.957C1059.53 470.816 1058.71 470.003 1057.58 469.558C1055.07 468.564 1051.08 469.845 1048.76 470.92C1048.6 470.994 1048.45 471.073 1048.29 471.149L1047.67 470.863Z"/>
	<path fill="white" d="M1106.27 468.864L1106.74 469.558C1105.65 470.899 1104.11 472.52 1103.76 474.246C1102.5 480.476 1112.05 481.737 1114.69 486.109C1115.55 487.536 1115.59 489.116 1115.17 490.692C1114.11 494.69 1111.35 497.908 1107.77 499.875C1102.58 502.724 1094.44 502.822 1088.8 501.1C1088.12 498.586 1091.82 493.625 1091.82 490.342C1091.82 490.202 1091.81 490.061 1091.81 489.92C1093.24 491.453 1092.76 493.818 1093.34 495.733C1094.12 498.295 1095.69 501.156 1098.12 502.42C1099.36 502.645 1100.34 502.578 1101.48 501.997C1104.29 500.556 1107.2 497.695 1108.13 494.609C1109.81 489.038 1100.17 485.497 1097.79 480.859C1097.04 479.399 1096.93 477.986 1097.51 476.451C1098.58 473.638 1103.61 470.061 1106.27 468.864Z"/>
	<path fill="white" d="M592.042 470.204C596.355 468.01 602.795 466.277 607.586 468.036C609.012 468.56 609.977 469.57 610.553 470.949C613.417 477.814 600.712 494.627 603.028 498.668C603.538 499.559 605.493 500.605 606.402 501.184C604.479 502.128 600.974 501.628 598.81 501.604L585.685 501.585C588.093 501.045 591.271 500.726 593.176 499.083C597.945 495.73 603.273 480.501 604.196 474.738C604.395 473.496 604.344 472.365 604.079 471.138C602.635 469.734 601.543 469.125 599.465 469.13C596.979 469.135 594.469 469.704 592.042 470.204Z"/>
	<path fill="white" d="M1181.28 467.918L1183.91 467.724C1184.35 468.159 1184.79 468.229 1184.59 468.868C1183.06 473.789 1173.17 495.089 1173.86 498.279C1174.31 500.373 1176.89 500.02 1177.45 501.778C1173.71 502.968 1166.63 501.969 1162.53 501.955L1159.49 501.897C1161.74 500.34 1164.26 499.946 1166.04 497.688C1168.44 494.644 1175.61 477.864 1175.63 474.524C1175.65 472.462 1174.08 471.082 1173.82 469.106C1176.29 468.571 1178.78 468.248 1181.28 467.918Z"/>
	<path fill="white" d="M556.409 468.959C560.892 468.412 565.399 467.735 569.898 467.35C567.518 473.492 558.049 493.112 559.203 498.529C560.122 499.531 561.005 500.465 562.091 501.296C561.394 501.408 560.672 501.581 559.967 501.572L542.996 501.537C547.651 500.054 549.923 499.634 552.272 495.046C554.833 490.042 561.451 476.761 560.519 471.232C559.347 469.956 557.996 469.534 556.409 468.959Z"/>
	<path fill="white" d="M1021.94 467.918C1023.11 467.733 1024.09 467.682 1025.27 467.818C1027.04 471.561 1014.8 491.913 1015.31 499.342C1016.48 499.87 1017.58 500.41 1018.69 501.062L1018.41 501.838C1013.58 502.001 1008.72 501.854 1003.89 501.819C1002.93 501.824 1001.57 502.09 1000.89 501.422C1002.06 501.049 1003.3 500.667 1004.37 500.051C1009.98 496.835 1014.65 482.888 1016.24 476.661C1016.92 473.996 1016.84 472.084 1015.35 469.738C1015.25 469.59 1015.15 469.448 1015.05 469.303C1017.36 468.637 1019.56 468.192 1021.94 467.918Z"/>
	<path fill="white" d="M338.119 467.987L344.241 467.257C345.755 470.558 333.785 491.401 333.957 498.191C334.876 500.15 335.348 500.085 337.257 500.951L336.897 501.441L327.232 501.539C324.629 501.525 321.89 501.685 319.312 501.321C320.351 500.159 322.452 500.165 323.869 499.451C327.546 497.594 330.709 487.685 332.227 483.781C333.407 480.747 336.549 473.77 334.978 470.656C334.572 469.85 333.448 469.653 332.633 469.337C333.863 468.138 336.39 468.216 338.119 467.987Z"/>
	<path fill="white" d="M1086.52 467.918L1089.27 467.699L1089.9 468.433C1090.06 472.495 1082.64 487.473 1080.81 492.47C1077.71 500.948 1080.84 497.368 1082.9 501.807C1077.92 501.842 1072.94 501.847 1067.96 501.824C1066.9 501.94 1066.16 501.778 1065.14 501.491C1067.95 500.216 1069.95 499.78 1071.94 497.19C1074.01 494.492 1080.89 478.298 1081.18 475.179C1081.38 473.034 1079.99 471.058 1079.69 468.948C1081.96 468.555 1084.24 468.212 1086.52 467.918Z"/>
	<path fill="white" d="M254.489 501.183C257.465 499.491 260.043 498.222 261.267 494.818C261.379 492.547 260.482 491.027 258.977 489.386C255.976 486.113 250.507 482.08 250.642 477.281C250.702 475.167 251.883 473.503 253.418 472.148C256.11 469.773 261.157 466.956 264.823 467.317C268.081 467.639 269.39 469.035 272.773 467.974C272.778 470.731 271.37 473.54 270.4 476.087L269.821 476.531C269.811 474.026 269.909 471.304 267.932 469.452C266.854 468.443 265.455 468.045 263.999 468.141C261.419 468.312 259.15 469.74 257.535 471.709C256.811 472.592 256.392 473.624 256.002 474.686C258.048 481.107 272.009 484.636 267.335 493.738C265.521 497.271 259.541 500.63 255.843 501.675C255.711 501.712 255.578 501.745 255.446 501.78L254.489 501.183Z"/>
	<path fill="white" d="M687.328 471.666L688.563 472.739C682.915 475.808 678.675 480.832 676.798 487.023C675.802 490.306 675.44 494.582 677.148 497.708C677.893 499.074 679.069 500.079 680.581 500.495C682.839 501.116 687.201 500.022 689.206 498.899L688.726 500.087C685.51 502.484 680.543 503.399 676.617 502.886C673.782 502.516 670.785 501.305 669.078 498.903C667.625 496.858 667.468 494.396 667.953 492C670.119 481.288 679.102 477.095 687.328 471.666Z"/>
	<path fill="white" d="M522.094 276.528C532.9 276.35 543.75 276.792 554.541 276.485L554.123 278.177C547.527 278.213 539.186 277.928 533.251 281.169C526.486 284.863 524.713 292.219 522.696 299.033C522.385 292.791 524.73 284.394 522.711 278.654C521.002 277.614 520.134 278.22 518.225 278.636C516.059 277.12 513.249 277.441 510.715 277.435C513.536 276.005 519.169 278.49 522.094 276.528Z"/>
	<path fill="white" d="M1059.96 276.158C1063.97 276.617 1068.36 279.024 1072.24 278.688C1073.22 277.833 1074.21 276.987 1075.2 276.151C1077.28 278.258 1076.62 287.514 1076.6 290.858C1076.58 293.951 1076.84 297.415 1075.5 300.264C1075.21 300.883 1074.95 301.511 1074.65 302.127C1075.58 297.693 1072.65 291.48 1070.23 287.771C1067.02 282.857 1062.52 278.616 1056.79 276.945C1057.8 276.568 1058.91 276.391 1059.96 276.158Z"/>
	<path fill="white" d="M988.463 346.915C994.657 346.276 999.967 344.561 1004.06 339.54C1006.92 336.038 1008.93 330.389 1008.54 325.818C1008.51 325.502 1008.49 325.196 1008.45 324.88C1011.52 329.305 1010.77 341.494 1009.73 346.824C1009.62 347.39 1009.39 347.907 1009.11 348.413C1008.24 348.498 1007.37 348.606 1006.49 348.635C1002.32 345.505 992.87 350.407 988.463 346.915Z"/>
	<path fill="white" d="M445.447 323.943C445.518 329.735 446.422 343.681 444.673 348.445L443.651 348.514C438.583 347.421 427.167 349.404 423.774 347.032C429.719 346.115 435.156 344.866 438.997 339.755C442.41 335.213 443.839 329.295 445.447 323.943Z"/>
	<path fill="white" d="M828.475 274.985C834.024 275.056 838.059 278.034 843.2 278.696C844.411 278.852 846.006 277.131 846.799 276.364C848.212 277.766 848.013 280.709 848.019 282.644C848.036 287.923 848.92 294.708 845.912 299.228C846.777 294.657 844.227 288.199 841.635 284.456C838.777 280.329 835.163 277.286 830.153 276.424C829.746 276.354 829.339 276.292 828.93 276.236L828.475 274.985Z"/>
	<path fill="white" d="M990.882 471.761C995.836 470.834 999.951 468.753 1002.82 464.467C1003.71 463.141 1004.57 461.425 1004.7 459.814C1005.22 464.802 998.164 481.532 994.95 485.495C994.526 486.028 994.069 486.535 993.583 487.013C994.918 484.454 996.356 481.289 995.51 478.337C995.073 476.809 994.115 475.682 992.72 474.947C991.905 474.518 991.041 474.278 990.144 474.089L990.882 471.761Z"/>
	<path fill="white" d="M994.272 447.927L1019.04 447.637C1019.87 451.515 1016.97 458.316 1014.89 461.577C1014.65 461.955 1014.4 462.329 1014.15 462.697C1015.1 460.136 1015.55 457.083 1014.41 454.484C1013.43 452.251 1011.4 450.983 1009.18 450.194C1004.58 448.564 999.165 448.927 994.35 449.028L994.272 447.927Z"/>
	<path fill="white" d="M626.552 514.651C626.485 514.718 626.425 514.794 626.349 514.852C624.289 516.42 617.425 516.528 614.846 516.179C611.929 515.784 608.463 514.43 606.651 511.995C605.692 510.706 605.207 509.187 605.569 507.582C606.107 505.196 608.291 503.487 610.259 502.271C612.108 501.127 613.871 500.239 616.074 500.745C617.306 501.868 617.3 501.961 617.562 503.618L616.801 504.546C615.811 503.78 615.158 503.395 613.907 503.236C612.007 503.877 610.455 504.815 608.962 506.168C607.762 507.254 607.488 508.155 607.411 509.715C608.245 511.362 609.173 512.342 610.861 513.13C616.127 515.59 620.879 515.217 626.22 513.275L626.552 514.651Z"/>
	<path fill="white" d="M1242.47 514.677C1241.22 515.477 1240.01 515.721 1238.58 515.954C1233.78 516.738 1228.43 517.342 1224.27 514.232C1222.62 513.002 1221.45 511.281 1221.19 509.22C1220.95 507.404 1221.49 505.754 1222.67 504.363C1224.61 502.078 1228.05 501.114 1230.91 500.841C1232.11 501.957 1232.74 502.231 1232.97 503.914C1230.31 504.081 1226.78 503.695 1224.85 505.901C1223.59 507.343 1222.97 509.165 1223.23 511.051C1223.33 511.83 1224.16 512.849 1224.8 513.325C1227.72 515.503 1233.35 515.496 1236.76 514.894C1238.57 514.575 1240.18 514.067 1241.83 513.284L1242.47 514.677Z"/>
	<path fill="white" d="M784.453 488.499C791.564 479.824 806.257 464.56 811.219 455.745L812.112 456.715C811.66 459.25 789.135 486.391 786.169 488.464C785.783 488.737 785.378 488.984 784.958 489.2L784.453 488.499Z"/>
	<path fill="white" d="M740.57 501.712C743.419 501.054 746.626 500.512 749.201 499.081C753.028 496.955 754.777 493.819 755.964 489.707L756.547 491.04C757.023 493.267 755.986 495.357 756.385 497.373C756.773 499.336 760.155 500.459 761.767 501.518L759.522 501.464L760.594 502.015L760.27 501.57L740.57 501.712Z"/>
	<path fill="white" d="M703.52 486.529C706.914 483.185 712.576 478.625 712.729 473.503C712.765 472.268 712.239 471.377 711.746 470.295C711.587 469.948 711.465 469.571 711.331 469.214C714.312 469.009 717.253 468.997 720.237 469.03C721.803 469.004 723.502 468.826 725.031 469.19C723.079 471.687 719.438 471.584 716.902 473.469C712.421 476.798 709.034 485.012 703.52 486.529Z"/>
	<path fill="white" d="M418.33 347.095C420.126 347.068 421.984 346.939 423.774 347.032C427.167 349.404 438.583 347.421 443.651 348.514C435.465 349.224 384.598 349.688 379.259 348.025C386.212 347.677 414.343 349.451 418.33 347.095Z"/>
	<path fill="white" d="M981.752 346.923L988.463 346.915C992.87 350.407 1002.32 345.505 1006.49 348.635C999.674 349.182 992.449 348.743 985.585 348.746C971.808 348.782 958.032 348.744 944.256 348.635C952.371 346.145 971.511 348.526 981.292 347.785L981.752 346.923Z"/>
	<path fill="white" d="M917.126 346.916L923.849 346.922C928.478 350.428 937.955 345.499 942.684 348.625C936.246 349.139 929.446 348.736 922.966 348.742C910.042 348.788 897.118 348.746 884.194 348.614C891.276 346.368 908.196 348.137 916.619 347.762L917.126 346.916Z"/>
	<path fill="white" d="M767.783 459.814L768.328 461.062C769.028 463.82 759.975 485.999 757.85 489.516C757.481 490.127 757.088 490.581 756.547 491.04L755.964 489.707C759.557 484.542 766.286 465.993 767.783 459.814Z"/>
	<path fill="white" d="M245.805 489.023C245.922 492.158 245.492 497.396 248.01 499.692C249.85 501.37 252.151 501.193 254.489 501.183L255.446 501.78C251.129 502.696 248.747 500.76 244.788 500.508C243.431 500.421 242.475 501.332 241.153 501.036C242.438 496.968 244.22 492.986 245.805 489.023Z"/>
	<path fill="white" d="M574.068 445.716C574.927 445.946 575.818 446.145 576.503 446.741C577.574 447.674 577.435 448.02 577.495 449.36C576.359 451.435 574.948 452.384 572.984 453.642C572.132 453.417 571.228 453.224 570.565 452.609C569.542 451.659 569.701 451.308 569.709 449.996C570.825 448.01 572.218 446.999 574.068 445.716Z"/>
	<path fill="white" d="M1092.61 447.02C1093.39 446.821 1094.26 446.557 1095.06 446.534C1096.73 446.487 1097.26 447.06 1098.32 448.179L1098.15 449.879C1097.12 451.601 1096.11 452.098 1094.32 452.899C1093.09 453.381 1092.32 453.704 1091.03 453.278L1090.55 452.207C1090.63 449.928 1091.25 448.821 1092.61 447.02Z"/>
	<path fill="white" d="M1186.96 447.02C1188.73 446.644 1189.92 446.33 1191.66 447.043C1192.67 448.25 1192.71 448.219 1192.62 449.788C1191.65 451.54 1190.71 452.032 1188.93 452.841C1188.21 453.329 1187.08 453.511 1186.23 453.747C1185.53 453.39 1185.52 453.175 1185.16 452.459C1185.05 450.086 1185.63 448.952 1186.96 447.02Z"/>
	<path fill="white" d="M348.72 445.771L351.31 446.407C352.453 447.641 352.551 447.584 352.502 449.247C351.53 451.198 350.245 452.145 348.494 453.391L345.937 452.744C344.829 451.575 344.761 451.624 344.775 450.028C345.728 448.082 347.031 447.073 348.72 445.771Z"/>
	<path fill="white" d="M1028.1 447.02C1028.86 446.827 1029.68 446.584 1030.47 446.536C1032.18 446.433 1032.69 446.944 1033.89 448.013L1033.94 449.587C1032.95 451.347 1032.12 451.921 1030.29 452.738C1029.59 453.229 1028.39 453.464 1027.57 453.734C1026.87 453.374 1026.86 453.202 1026.5 452.491C1026.34 450.117 1026.79 448.988 1028.1 447.02Z"/>
	<path fill="white" d="M1065.96 344.119C1075.24 338.923 1073.39 331.717 1077.11 328.741C1077.59 332.636 1074.96 338.435 1072.6 341.449C1071.06 343.419 1069.26 344.95 1066.82 345.577L1065.96 344.119Z"/>
	<path fill="white" d="M326.133 274.958C331.421 273.641 336.927 273.45 342.293 274.399L341.944 277.055C336.532 276.211 332.351 276.259 327.034 277.595L326.133 274.958Z"/>
	<path fill="white" d="M667.505 274.935C672.805 273.628 678.322 273.452 683.694 274.42L682.394 276.82C677.225 276.234 672.777 276.493 667.685 277.505L667.505 274.935Z"/>
	<path fill="white" d="M835.366 478.644L852.145 478.687L851.505 479.999C846.053 480.167 840.663 480.136 835.214 479.977L835.366 478.644Z"/>
	<path fill="white" d="M1113.87 468.154C1115.68 468.471 1117.47 468.767 1119.29 468.954C1119.85 469.995 1119.95 469.961 1119.6 471.104C1119.04 472.952 1118.35 474.658 1117.53 476.405L1116.65 476.609L1116.75 476.065C1117.11 474.1 1117.09 472.672 1115.9 471.005C1115.2 470.027 1114.41 469.419 1113.32 468.916L1113.87 468.154Z"/>
	<path fill="white" d="M1043.11 275.52C1047.18 274.734 1056.12 273.806 1059.75 275.997C1059.82 276.042 1059.89 276.104 1059.96 276.158C1058.91 276.391 1057.8 276.568 1056.79 276.945C1053.18 276.493 1050.06 276.429 1046.43 276.756L1046.03 275.98L1043.11 275.52Z"/>
	<path fill="white" d="M446.682 473.536C450.105 473.665 453.55 473.361 456.967 473.168L458.718 474.864C454.964 474.962 451.337 475.088 447.619 474.455L446.682 473.536Z"/>
	<path fill="white" d="M879.421 468.238C882.502 468.15 885.645 467.88 888.668 468.596C886.758 470.276 880.739 469.65 878.198 469.561L879.421 468.238Z"/>
	<path fill="white" d="M844.245 499.548C844.426 499.493 844.608 499.442 844.789 499.385C846.528 498.832 853.444 493.994 853.623 494.077C851.45 497.049 848.405 500.036 844.647 500.732L844.245 499.548Z"/>
	<path fill="white" d="M547.585 468.357C549.842 468.186 554.262 467.396 556.174 468.742C556.261 468.803 556.33 468.886 556.409 468.959C553.6 470.228 548.63 469.577 545.511 469.467L547.585 468.357Z"/>
	<path fill="white" d="M695.875 492.334L696.646 494.336C694.932 497.136 691.824 499.108 688.726 500.087L689.206 498.899C690.462 498.096 691.733 497.294 692.944 496.423C694.702 495.158 695.539 494.474 695.875 492.334Z"/>
	<path fill="white" d="M983.608 473.475L984.203 471.442C986.376 472.071 988.68 472.59 990.882 471.761L990.144 474.089C988.039 473.595 985.765 473.6 983.608 473.475Z"/>
	<path fill="white" d="M1106.27 468.864C1107.04 468.551 1107.82 468.261 1108.61 467.992C1110.5 467.362 1112.04 467.241 1113.87 468.154L1113.32 468.916C1110.96 468.822 1109.03 468.965 1106.74 469.558L1106.27 468.864Z"/>
</svg>
